<svg width="19" height="19" viewBox="0 0 19 19" fill="none" xmlns="http://www.w3.org/2000/svg">
<g id="solar:camera-bold">
<path id="Vector" fill-rule="evenodd" clip-rule="evenodd" d="M7.74108 16.625H11.2592C13.73 16.625 14.9658 16.625 15.8533 16.0431C16.2362 15.7921 16.566 15.4683 16.8239 15.0899C17.4168 14.2191 17.4168 13.0055 17.4168 10.5798C17.4168 8.15335 17.4168 6.94052 16.8239 6.06968C16.566 5.69136 16.2362 5.36748 15.8533 5.11652C15.2833 4.74206 14.5692 4.60827 13.4759 4.56077C12.9542 4.56077 12.5053 4.17285 12.4032 3.67014C12.3252 3.30191 12.1224 2.97192 11.8291 2.73594C11.5359 2.49995 11.1701 2.37245 10.7937 2.37498H8.20658C7.42441 2.37498 6.7507 2.91727 6.59712 3.67014C6.495 4.17285 6.04612 4.56077 5.52441 4.56077C4.43191 4.60827 3.71783 4.74285 3.14704 5.11652C2.76436 5.36753 2.43483 5.6914 2.17725 6.06968C1.5835 6.94052 1.5835 8.15335 1.5835 10.5798C1.5835 13.0055 1.5835 14.2183 2.17645 15.0899C2.43295 15.4668 2.76229 15.7906 3.14704 16.0431C4.0345 16.625 5.27029 16.625 7.74108 16.625ZM9.50016 7.3411C7.67854 7.3411 6.20129 8.79064 6.20129 10.579C6.20129 12.3682 7.67854 13.8177 9.50016 13.8177C11.3218 13.8177 12.799 12.3682 12.799 10.5798C12.799 8.79064 11.3218 7.3411 9.50016 7.3411ZM9.50016 8.63627C8.40766 8.63627 7.521 9.50631 7.521 10.5798C7.521 11.6525 8.40766 12.5226 9.50016 12.5226C10.5927 12.5226 11.4793 11.6525 11.4793 10.5798C11.4793 9.50631 10.5927 8.63627 9.50016 8.63627ZM13.2384 7.98868C13.2384 7.63085 13.5337 7.3411 13.8987 7.3411H14.7774C15.1416 7.3411 15.4377 7.63085 15.4377 7.98868C15.436 8.16198 15.3656 8.32752 15.2419 8.44895C15.1183 8.57037 14.9515 8.63774 14.7782 8.63627H13.8987C13.8128 8.6371 13.7276 8.62102 13.6479 8.58892C13.5683 8.55683 13.4957 8.50936 13.4344 8.44923C13.3731 8.38909 13.3242 8.31747 13.2906 8.23845C13.257 8.15943 13.2392 8.07456 13.2384 7.98868Z" fill="black" fill-opacity="0.4"/>
</g>
</svg>
