<svg width="73" height="83" viewBox="0 0 73 83" fill="none" xmlns="http://www.w3.org/2000/svg">
<g id="fa-solid:building" clip-path="url(#clip0_505_89)">
<path id="Vector" d="M71.0446 77.8125H67.7857V3.89062C67.7857 1.74187 66.0349 0 63.875 0H9.125C6.96515 0 5.21429 1.74187 5.21429 3.89062V77.8125H1.95536C0.875511 77.8125 0 78.6835 0 79.7578V83H73V79.7578C73 78.6835 72.1245 77.8125 71.0446 77.8125ZM20.8571 12.3203C20.8571 11.246 21.7327 10.375 22.8125 10.375H29.3304C30.4102 10.375 31.2857 11.246 31.2857 12.3203V18.8047C31.2857 19.879 30.4102 20.75 29.3304 20.75H22.8125C21.7327 20.75 20.8571 19.879 20.8571 18.8047V12.3203ZM20.8571 27.8828C20.8571 26.8085 21.7327 25.9375 22.8125 25.9375H29.3304C30.4102 25.9375 31.2857 26.8085 31.2857 27.8828V34.3672C31.2857 35.4415 30.4102 36.3125 29.3304 36.3125H22.8125C21.7327 36.3125 20.8571 35.4415 20.8571 34.3672V27.8828ZM29.3304 51.875H22.8125C21.7327 51.875 20.8571 51.004 20.8571 49.9297V43.4453C20.8571 42.371 21.7327 41.5 22.8125 41.5H29.3304C30.4102 41.5 31.2857 42.371 31.2857 43.4453V49.9297C31.2857 51.004 30.4102 51.875 29.3304 51.875ZM41.7143 77.8125H31.2857V64.1953C31.2857 63.121 32.1612 62.25 33.2411 62.25H39.7589C40.8388 62.25 41.7143 63.121 41.7143 64.1953V77.8125ZM52.1429 49.9297C52.1429 51.004 51.2673 51.875 50.1875 51.875H43.6696C42.5898 51.875 41.7143 51.004 41.7143 49.9297V43.4453C41.7143 42.371 42.5898 41.5 43.6696 41.5H50.1875C51.2673 41.5 52.1429 42.371 52.1429 43.4453V49.9297ZM52.1429 34.3672C52.1429 35.4415 51.2673 36.3125 50.1875 36.3125H43.6696C42.5898 36.3125 41.7143 35.4415 41.7143 34.3672V27.8828C41.7143 26.8085 42.5898 25.9375 43.6696 25.9375H50.1875C51.2673 25.9375 52.1429 26.8085 52.1429 27.8828V34.3672ZM52.1429 18.8047C52.1429 19.879 51.2673 20.75 50.1875 20.75H43.6696C42.5898 20.75 41.7143 19.879 41.7143 18.8047V12.3203C41.7143 11.246 42.5898 10.375 43.6696 10.375H50.1875C51.2673 10.375 52.1429 11.246 52.1429 12.3203V18.8047Z" fill="#88CFF9"/>
</g>
<defs>
<clipPath id="clip0_505_89">
<rect width="73" height="83" fill="white"/>
</clipPath>
</defs>
</svg>
