<svg width="25" height="25" viewBox="0 0 25 25" fill="none" xmlns="http://www.w3.org/2000/svg">
<g id="tabler:gender-bigender">
<path id="Vector" d="M19.7915 3.125L14.5832 8.33333M19.7915 3.125H15.6248M19.7915 3.125V7.29167M11.4582 16.6667V22.9167M8.33317 19.7917H14.5832M7.2915 11.4583C7.2915 12.5634 7.73049 13.6232 8.51189 14.4046C9.29329 15.186 10.3531 15.625 11.4582 15.625C12.5632 15.625 13.623 15.186 14.4044 14.4046C15.1859 13.6232 15.6248 12.5634 15.6248 11.4583C15.6248 10.3533 15.1859 9.29346 14.4044 8.51205C13.623 7.73065 12.5632 7.29167 11.4582 7.29167C10.3531 7.29167 9.29329 7.73065 8.51189 8.51205C7.73049 9.29346 7.2915 10.3533 7.2915 11.4583Z" stroke="black" stroke-opacity="0.4" stroke-width="3" stroke-linecap="round" stroke-linejoin="round"/>
</g>
</svg>
