<svg width="100" height="100" viewBox="0 0 100 100" fill="none" xmlns="http://www.w3.org/2000/svg">
<g id="bi:people-fill">
<path id="Vector" d="M43.75 87.5C43.75 87.5 37.5 87.5 37.5 81.25C37.5 75 43.75 56.25 68.75 56.25C93.75 56.25 100 75 100 81.25C100 87.5 93.75 87.5 93.75 87.5H43.75ZM68.75 50C73.7228 50 78.492 48.0246 82.0083 44.5083C85.5246 40.9919 87.5 36.2228 87.5 31.25C87.5 26.2772 85.5246 21.5081 82.0083 17.9917C78.492 14.4754 73.7228 12.5 68.75 12.5C63.7772 12.5 59.0081 14.4754 55.4917 17.9917C51.9754 21.5081 50 26.2772 50 31.25C50 36.2228 51.9754 40.9919 55.4917 44.5083C59.0081 48.0246 63.7772 50 68.75 50ZM32.6 87.5C31.6735 85.5488 31.2114 83.4096 31.25 81.25C31.25 72.7812 35.5 64.0625 43.35 58C39.4318 56.7927 35.3497 56.2023 31.25 56.25C6.25 56.25 0 75 0 81.25C0 87.5 6.25 87.5 6.25 87.5H32.6ZM28.125 50C32.269 50 36.2433 48.3538 39.1735 45.4235C42.1038 42.4933 43.75 38.519 43.75 34.375C43.75 30.231 42.1038 26.2567 39.1735 23.3265C36.2433 20.3962 32.269 18.75 28.125 18.75C23.981 18.75 20.0067 20.3962 17.0765 23.3265C14.1462 26.2567 12.5 30.231 12.5 34.375C12.5 38.519 14.1462 42.4933 17.0765 45.4235C20.0067 48.3538 23.981 50 28.125 50Z" fill="#88CFF9"/>
</g>
</svg>
