<svg width="25" height="25" viewBox="0 0 25 25" fill="none" xmlns="http://www.w3.org/2000/svg">
<g id="mdi:rename-box">
<path id="Vector" d="M18.75 17.7083H10.9375L13.0208 15.625H18.75M6.25 17.7083V15.1042L14.4583 6.92708C14.6562 6.71875 14.9896 6.71875 15.1979 6.92708L17.0312 8.76042C17.2396 8.96875 17.2396 9.29167 17.0312 9.5L8.82292 17.7083M19.7917 3.125H5.20833C4.05208 3.125 3.125 4.05208 3.125 5.20833V19.7917C3.125 20.3442 3.34449 20.8741 3.73519 21.2648C4.12589 21.6555 4.6558 21.875 5.20833 21.875H19.7917C20.3442 21.875 20.8741 21.6555 21.2648 21.2648C21.6555 20.8741 21.875 20.3442 21.875 19.7917V5.20833C21.875 4.6558 21.6555 4.12589 21.2648 3.73519C20.8741 3.34449 20.3442 3.125 19.7917 3.125Z" fill="black" fill-opacity="0.4"/>
</g>
</svg>
