<svg width="100" height="100" viewBox="0 0 100 100" fill="none" xmlns="http://www.w3.org/2000/svg">
<g id="iconamoon:history-bold">
<g id="Group">
<path id="Vector" d="M23.4833 76.5167C29.6185 82.6519 37.6914 86.4699 46.3262 87.3199C54.961 88.1699 63.6234 85.9994 70.8371 81.1782C78.0509 76.3571 83.3697 69.1836 85.887 60.8802C88.4043 52.5769 87.9645 43.6576 84.6424 35.6422C81.3203 27.6269 75.3216 21.0115 67.6684 16.9235C60.0153 12.8355 51.1814 11.5278 42.6721 13.2232C34.1629 14.9187 26.5048 19.5124 21.0031 26.2216C15.5013 32.9307 12.4962 41.3401 12.5 50.0167V58.3333" stroke="#88CFF9" stroke-width="7" stroke-linecap="round" stroke-linejoin="round"/>
<path id="Vector_2" d="M4.16699 50L12.5003 58.3334L20.8337 50M45.8337 33.3334V54.1667H66.667" stroke="#88CFF9" stroke-width="7" stroke-linecap="round" stroke-linejoin="round"/>
</g>
</g>
</svg>
