<svg width="100" height="100" viewBox="0 0 100 100" fill="none" xmlns="http://www.w3.org/2000/svg">
<g id="healthicons:i-exam-multiple-choice">
<path id="Vector" fill-rule="evenodd" clip-rule="evenodd" d="M81.25 27.0833C79.5924 27.0833 78.0027 27.7418 76.8306 28.9139C75.6585 30.086 75 31.6757 75 33.3333V37.5H87.5V33.3333C87.5 31.6757 86.8415 30.086 85.6694 28.9139C84.4973 27.7418 82.9076 27.0833 81.25 27.0833ZM87.5 41.6667H75V76.0417L81.25 85.4167L87.5 76.0417V41.6667ZM12.5 18.75V81.25C12.5 82.9076 13.1585 84.4973 14.3306 85.6694C15.5027 86.8415 17.0924 87.5 18.75 87.5H64.5833C66.2409 87.5 67.8306 86.8415 69.0027 85.6694C70.1748 84.4973 70.8333 82.9076 70.8333 81.25V18.75C70.8333 17.0924 70.1748 15.5027 69.0027 14.3306C67.8306 13.1585 66.2409 12.5 64.5833 12.5H18.75C17.0924 12.5 15.5027 13.1585 14.3306 14.3306C13.1585 15.5027 12.5 17.0924 12.5 18.75ZM41.6667 31.25C41.6667 30.6975 41.8862 30.1676 42.2769 29.7769C42.6676 29.3862 43.1975 29.1667 43.75 29.1667H60.4167C60.9692 29.1667 61.4991 29.3862 61.8898 29.7769C62.2805 30.1676 62.5 30.6975 62.5 31.25C62.5 31.8025 62.2805 32.3324 61.8898 32.7231C61.4991 33.1138 60.9692 33.3333 60.4167 33.3333H43.75C43.1975 33.3333 42.6676 33.1138 42.2769 32.7231C41.8862 32.3324 41.6667 31.8025 41.6667 31.25ZM43.75 37.5C43.1975 37.5 42.6676 37.7195 42.2769 38.1102C41.8862 38.5009 41.6667 39.0308 41.6667 39.5833C41.6667 40.1359 41.8862 40.6658 42.2769 41.0565C42.6676 41.4472 43.1975 41.6667 43.75 41.6667H60.4167C60.9692 41.6667 61.4991 41.4472 61.8898 41.0565C62.2805 40.6658 62.5 40.1359 62.5 39.5833C62.5 39.0308 62.2805 38.5009 61.8898 38.1102C61.4991 37.7195 60.9692 37.5 60.4167 37.5H43.75ZM41.6667 58.3333C41.6667 57.7808 41.8862 57.2509 42.2769 56.8602C42.6676 56.4695 43.1975 56.25 43.75 56.25H60.4167C60.9692 56.25 61.4991 56.4695 61.8898 56.8602C62.2805 57.2509 62.5 57.7808 62.5 58.3333C62.5 58.8859 62.2805 59.4158 61.8898 59.8065C61.4991 60.1972 60.9692 60.4167 60.4167 60.4167H43.75C43.1975 60.4167 42.6676 60.1972 42.2769 59.8065C41.8862 59.4158 41.6667 58.8859 41.6667 58.3333ZM43.75 64.5833C43.1975 64.5833 42.6676 64.8028 42.2769 65.1935C41.8862 65.5842 41.6667 66.1141 41.6667 66.6667C41.6667 67.2192 41.8862 67.7491 42.2769 68.1398C42.6676 68.5305 43.1975 68.75 43.75 68.75H60.4167C60.9692 68.75 61.4991 68.5305 61.8898 68.1398C62.2805 67.7491 62.5 67.2192 62.5 66.6667C62.5 66.1141 62.2805 65.5842 61.8898 65.1935C61.4991 64.8028 60.9692 64.5833 60.4167 64.5833H43.75ZM25 58.3333V64.5833H31.25V58.3333H25ZM22.9167 54.1667H33.3333C33.8859 54.1667 34.4158 54.3862 34.8065 54.7769C35.1972 55.1676 35.4167 55.6975 35.4167 56.25V66.6667C35.4167 67.2192 35.1972 67.7491 34.8065 68.1398C34.4158 68.5305 33.8859 68.75 33.3333 68.75H22.9167C22.3641 68.75 21.8342 68.5305 21.4435 68.1398C21.0528 67.7491 20.8333 67.2192 20.8333 66.6667V56.25C20.8333 55.6975 21.0528 55.1676 21.4435 54.7769C21.8342 54.3862 22.3641 54.1667 22.9167 54.1667ZM36.8896 32.7229C37.2691 32.33 37.4791 31.8037 37.4743 31.2575C37.4696 30.7113 37.2505 30.1887 36.8642 29.8025C36.4779 29.4162 35.9554 29.1971 35.4092 29.1923C34.8629 29.1876 34.3367 29.3976 33.9437 29.7771L27.0833 36.6375L24.3896 33.9437C23.9967 33.5643 23.4704 33.3543 22.9242 33.359C22.3779 33.3638 21.8554 33.5829 21.4691 33.9691C21.0829 34.3554 20.8638 34.8779 20.859 35.4242C20.8543 35.9704 21.0643 36.4967 21.4438 36.8896L27.0833 42.5292L36.8896 32.7229Z" fill="#88CFF9"/>
</g>
</svg>
