<svg width="25" height="25" viewBox="0 0 25 25" fill="none" xmlns="http://www.w3.org/2000/svg">
<g id="solar:calendar-bold">
<g id="Group">
<path id="Vector" d="M8.07331 2.60413C8.07331 2.39693 7.991 2.19821 7.84448 2.0517C7.69797 1.90519 7.49926 1.82288 7.29206 1.82288C7.08486 1.82288 6.88614 1.90519 6.73963 2.0517C6.59312 2.19821 6.51081 2.39693 6.51081 2.60413V4.24996C5.01081 4.36975 4.02747 4.6635 3.30456 5.38746C2.5806 6.11038 2.28685 7.09475 2.16602 8.59371H22.8348C22.7139 7.09371 22.4202 6.11038 21.6962 5.38746C20.9733 4.6635 19.9889 4.36975 18.49 4.24892V2.60413C18.49 2.39693 18.4077 2.19821 18.2612 2.0517C18.1146 1.90519 17.9159 1.82288 17.7087 1.82288C17.5015 1.82288 17.3028 1.90519 17.1563 2.0517C17.0098 2.19821 16.9275 2.39693 16.9275 2.60413V4.18017C16.2348 4.16663 15.4577 4.16663 14.5837 4.16663H10.4171C9.5431 4.16663 8.76602 4.16663 8.07331 4.18017V2.60413Z" fill="black" fill-opacity="0.4"/>
<path id="Vector_2" fill-rule="evenodd" clip-rule="evenodd" d="M2.0835 12.5C2.0835 11.626 2.0835 10.849 2.09704 10.1562H22.9033C22.9168 10.849 22.9168 11.626 22.9168 12.5V14.5833C22.9168 18.5115 22.9168 20.476 21.696 21.6958C20.4762 22.9167 18.5116 22.9167 14.5835 22.9167H10.4168C6.4887 22.9167 4.52412 22.9167 3.30433 21.6958C2.0835 20.476 2.0835 18.5115 2.0835 14.5833V12.5ZM17.7085 14.5833C17.9848 14.5833 18.2497 14.4736 18.4451 14.2782C18.6404 14.0829 18.7502 13.8179 18.7502 13.5417C18.7502 13.2654 18.6404 13.0004 18.4451 12.8051C18.2497 12.6097 17.9848 12.5 17.7085 12.5C17.4322 12.5 17.1673 12.6097 16.9719 12.8051C16.7766 13.0004 16.6668 13.2654 16.6668 13.5417C16.6668 13.8179 16.7766 14.0829 16.9719 14.2782C17.1673 14.4736 17.4322 14.5833 17.7085 14.5833ZM17.7085 18.75C17.9848 18.75 18.2497 18.6403 18.4451 18.4449C18.6404 18.2496 18.7502 17.9846 18.7502 17.7083C18.7502 17.4321 18.6404 17.1671 18.4451 16.9718C18.2497 16.7764 17.9848 16.6667 17.7085 16.6667C17.4322 16.6667 17.1673 16.7764 16.9719 16.9718C16.7766 17.1671 16.6668 17.4321 16.6668 17.7083C16.6668 17.9846 16.7766 18.2496 16.9719 18.4449C17.1673 18.6403 17.4322 18.75 17.7085 18.75ZM13.5418 13.5417C13.5418 13.8179 13.4321 14.0829 13.2367 14.2782C13.0414 14.4736 12.7764 14.5833 12.5002 14.5833C12.2239 14.5833 11.9589 14.4736 11.7636 14.2782C11.5682 14.0829 11.4585 13.8179 11.4585 13.5417C11.4585 13.2654 11.5682 13.0004 11.7636 12.8051C11.9589 12.6097 12.2239 12.5 12.5002 12.5C12.7764 12.5 13.0414 12.6097 13.2367 12.8051C13.4321 13.0004 13.5418 13.2654 13.5418 13.5417ZM13.5418 17.7083C13.5418 17.9846 13.4321 18.2496 13.2367 18.4449C13.0414 18.6403 12.7764 18.75 12.5002 18.75C12.2239 18.75 11.9589 18.6403 11.7636 18.4449C11.5682 18.2496 11.4585 17.9846 11.4585 17.7083C11.4585 17.4321 11.5682 17.1671 11.7636 16.9718C11.9589 16.7764 12.2239 16.6667 12.5002 16.6667C12.7764 16.6667 13.0414 16.7764 13.2367 16.9718C13.4321 17.1671 13.5418 17.4321 13.5418 17.7083ZM7.29183 14.5833C7.5681 14.5833 7.83305 14.4736 8.0284 14.2782C8.22375 14.0829 8.3335 13.8179 8.3335 13.5417C8.3335 13.2654 8.22375 13.0004 8.0284 12.8051C7.83305 12.6097 7.5681 12.5 7.29183 12.5C7.01556 12.5 6.75061 12.6097 6.55526 12.8051C6.35991 13.0004 6.25016 13.2654 6.25016 13.5417C6.25016 13.8179 6.35991 14.0829 6.55526 14.2782C6.75061 14.4736 7.01556 14.5833 7.29183 14.5833ZM7.29183 18.75C7.5681 18.75 7.83305 18.6403 8.0284 18.4449C8.22375 18.2496 8.3335 17.9846 8.3335 17.7083C8.3335 17.4321 8.22375 17.1671 8.0284 16.9718C7.83305 16.7764 7.5681 16.6667 7.29183 16.6667C7.01556 16.6667 6.75061 16.7764 6.55526 16.9718C6.35991 17.1671 6.25016 17.4321 6.25016 17.7083C6.25016 17.9846 6.35991 18.2496 6.55526 18.4449C6.75061 18.6403 7.01556 18.75 7.29183 18.75Z" fill="black" fill-opacity="0.4"/>
</g>
</g>
</svg>
